<?xml version="1.0" encoding="UTF-8"?>
<!DOCTYPE svg PUBLIC "-//W3C//DTD SVG 1.1//EN" "http://www.w3.org/Graphics/SVG/1.1/DTD/svg11.dtd">
<!-- Creator: CorelDRAW 2017 -->
<svg xmlns="http://www.w3.org/2000/svg" xml:space="preserve" width="36.7243mm" height="36.3686mm" version="1.1" style="shape-rendering:geometricPrecision; text-rendering:geometricPrecision; image-rendering:optimizeQuality; fill-rule:evenodd; clip-rule:evenodd"
viewBox="0 0 2264 2242"
 xmlns:xlink="http://www.w3.org/1999/xlink">
 <defs>
  <style type="text/css">
   <![CDATA[
    .fil1 {fill:#8FC322}
    .fil3 {fill:#A6CF4F}
    .fil2 {fill:#FFFFFD}
    .fil0 {fill:white}
   ]]>
  </style>
 </defs>
 <g id="Слой_x0020_1">
  <metadata id="CorelCorpID_0Corel-Layer"/>
  <ellipse class="fil0" cx="1132" cy="1121" rx="1132" ry="1121"/>
  <g id="_2510495227616">
   <path class="fil1" d="M1303 1038c-73,49 -286,411 -539,517 -347,-758 520,-578 786,-1212 167,314 182,1104 -587,1260 -134,27 -122,20 -227,100 -57,43 -142,124 -206,92 27,-72 69,-56 209,-155 165,-116 534,-411 565,-603zm-237 -961l174 0c57,5 113,15 167,30 471,135 728,507 770,900l0 229c-44,410 -322,797 -839,916 -21,5 -42,9 -62,12l-312 0c-425,-71 -767,-425 -863,-839 -5,-21 -9,-43 -12,-64l0 -280c53,-360 300,-697 639,-832 144,-57 153,-37 209,-52 40,-10 84,-18 130,-22z"/>
   <path class="fil2" d="M1303 1038c16,-71 16,-65 67,-122 -22,75 -14,77 -67,122zm0 0c-31,192 -400,487 -565,603 -140,99 -182,83 -209,155 64,32 149,-49 206,-92 105,-80 93,-73 227,-100 769,-156 754,-946 587,-1260 -265,634 -1132,454 -786,1212 253,-106 466,-468 539,-517z"/>
   <path class="fil3" d="M1303 1038c53,-45 45,-47 67,-122 -50,57 -51,51 -67,122z"/>
  </g>
 </g>
</svg>
